<svg width="44" height="44" viewBox="0 0 44 44" fill="none" xmlns="http://www.w3.org/2000/svg">
<rect width="44" height="44" rx="8" fill="#C7800E"/>
<path d="M23.7549 20.6399C23.7549 20.9333 23.995 21.1734 24.2884 21.1734C24.5818 21.1734 24.8218 20.9333 24.8218 20.6399C24.8218 19.405 23.8189 18.4021 22.584 18.4021C22.2906 18.4021 22.0505 18.6422 22.0505 18.9356C22.0505 19.229 22.2906 19.469 22.584 19.469C23.2295 19.469 23.7549 19.9945 23.7549 20.6399Z" fill="white"/>
<path d="M24.6299 22.8325C24.3365 22.8325 24.0965 23.0726 24.0965 23.366C24.0965 24.0115 23.571 24.5369 22.9255 24.5369C22.6321 24.5369 22.3921 24.777 22.3921 25.0704C22.3921 25.3638 22.6321 25.6038 22.9255 25.6038C24.1605 25.6038 25.1634 24.6009 25.1634 23.366C25.1634 23.0726 24.9233 22.8325 24.6299 22.8325Z" fill="white"/>
<path d="M20.5411 22.491C19.8956 22.491 19.3701 21.9656 19.3701 21.3201C19.3701 21.0267 19.1301 20.7866 18.8367 20.7866C18.5433 20.7866 18.3032 21.0267 18.3032 21.3201C18.3032 22.555 19.3061 23.5579 20.5411 23.5579C20.8345 23.5579 21.0745 23.3179 21.0745 23.0245C21.0745 22.7311 20.8345 22.491 20.5411 22.491Z" fill="white"/>
<path d="M33.4532 20.4773C32.9971 19.9198 32.3223 19.6024 31.6021 19.6024C31.0473 19.6024 30.5219 19.7891 30.0951 20.1332L28.5374 20.1225L28.5428 20.0932L30.7619 18.8209C31.242 18.8369 31.6982 18.6609 32.0582 18.3301C32.5917 17.842 32.7971 17.0552 32.5677 16.375C32.3863 15.8362 31.9809 15.4121 31.4554 15.2121C30.93 15.012 30.3512 15.0574 29.8631 15.3374C29.5697 15.5055 29.3323 15.7482 29.1696 16.0443L26.9851 17.2979C26.9584 17.3139 26.9264 17.3085 26.8971 17.2765C26.8757 17.2552 26.8731 17.2232 26.8864 17.1992L27.6306 15.8922C28.2947 15.6335 28.8015 15.1027 29.0362 14.4092C29.3429 13.4997 29.0602 12.4701 28.3321 11.846C27.7773 11.3712 27.0518 11.1685 26.3449 11.2912C25.6354 11.4139 25.0246 11.8433 24.6699 12.4701C24.3952 12.9502 24.2991 13.5023 24.3872 14.0411L23.6003 15.3881V12.8222C23.8484 12.4114 23.9284 11.9313 23.8217 11.4539C23.6643 10.7471 23.0829 10.1789 22.3787 10.0376C21.8212 9.92553 21.2504 10.0669 20.8157 10.4243C20.3809 10.7791 20.1328 11.3072 20.1328 11.8673C20.1328 12.2034 20.2235 12.5315 20.3996 12.8195L20.3889 15.3934L19.6207 14.0438C19.7381 13.3396 19.5407 12.6355 19.0633 12.078C18.4391 11.3499 17.4069 11.0671 16.5 11.3739C15.8092 11.6086 15.2651 12.1287 15.009 12.8009C14.753 13.473 14.809 14.2172 15.1664 14.844C15.4411 15.3268 15.8652 15.6922 16.3747 15.8896L17.1188 17.1965C17.1322 17.2232 17.1295 17.2552 17.1002 17.2819C17.0788 17.3059 17.0441 17.3112 17.0175 17.2952L14.833 16.0416C14.5983 15.6202 14.2222 15.3134 13.7554 15.1694C13.0646 14.9533 12.2831 15.1747 11.811 15.7162C11.4375 16.1456 11.2748 16.7084 11.3682 17.2632C11.4615 17.818 11.7923 18.2954 12.2804 18.5755C12.5738 18.7435 12.8992 18.8236 13.2406 18.8182L15.4678 20.1119L15.4491 20.1332H13.9074C13.3553 19.6824 12.6431 19.5064 11.923 19.6451C10.9814 19.8291 10.2266 20.584 10.0452 21.5255C9.90652 22.243 10.0906 22.9712 10.5467 23.526C11.0028 24.0834 11.6776 24.4035 12.3978 24.4035C12.9525 24.4035 13.478 24.2168 13.9048 23.87L15.4625 23.8807C15.4625 23.8834 15.4571 23.9074 15.4571 23.9101L13.2379 25.1823C12.7578 25.1743 12.3017 25.3424 11.9417 25.6731C11.4082 26.1612 11.2028 26.9481 11.4322 27.6282C11.6136 28.167 12.019 28.5911 12.5445 28.7912C13.0699 28.9912 13.6514 28.9459 14.1368 28.6658C14.4302 28.4978 14.6676 28.255 14.833 27.959L17.0201 26.7054C17.0468 26.6893 17.0788 26.6947 17.1082 26.7267C17.1295 26.748 17.1322 26.78 17.1188 26.804L16.3747 28.1137C15.7105 28.3724 15.2037 28.9032 14.969 29.5967C14.6623 30.5062 14.945 31.5358 15.6732 32.1599C16.228 32.6347 16.9508 32.8374 17.6603 32.7147C18.3698 32.592 18.9806 32.1626 19.3353 31.5358C19.6101 31.053 19.7088 30.5009 19.6181 29.9568L20.3676 28.6045C20.3782 28.6071 20.3889 28.6098 20.3996 28.6125V31.181C20.1515 31.5918 20.0715 32.0719 20.1782 32.5494C20.3356 33.2562 20.9144 33.8243 21.6212 33.9657C21.7466 33.9897 21.8719 34.003 21.9973 34.003C22.4294 34.003 22.8455 33.8563 23.1842 33.5816C23.619 33.2268 23.867 32.6987 23.867 32.1386C23.867 31.8025 23.7763 31.4744 23.6003 31.1837L23.6083 28.6098C23.6083 28.6098 23.611 28.6098 23.6136 28.6098L24.3818 29.9594C24.2645 30.6636 24.4618 31.3677 24.9393 31.9252C25.5634 32.6534 26.5957 32.9334 27.5025 32.6294C28.1934 32.3946 28.7375 31.8745 28.9935 31.2024C29.2496 30.5302 29.1936 29.7861 28.8362 29.1592C28.5614 28.6765 28.1373 28.3111 27.6252 28.111L26.8811 26.8014C26.8677 26.7774 26.8704 26.7454 26.8971 26.716C26.9184 26.692 26.9531 26.6867 26.9797 26.7027L29.1642 27.9563C29.3963 28.3777 29.775 28.6845 30.2418 28.8285C30.9326 29.0446 31.7142 28.8232 32.1863 28.2817C32.5597 27.8523 32.7224 27.2895 32.629 26.7347C32.5357 26.1799 32.2049 25.7025 31.7168 25.4224C31.4234 25.2544 31.09 25.1717 30.7566 25.1797L28.5294 23.8914C28.5294 23.8887 28.5481 23.8674 28.5481 23.8647H30.0898C30.6446 24.3155 31.3541 24.4915 32.0742 24.3528C33.0158 24.1688 33.7706 23.4139 33.952 22.4724C34.096 21.7602 33.912 21.0321 33.4532 20.4773ZM32.9091 22.275C32.8077 22.7925 32.3916 23.2086 31.8742 23.3099C31.4261 23.3979 30.9887 23.2672 30.6686 22.9552C30.5699 22.8565 30.4365 22.8031 30.2978 22.8031H28.5534C28.0733 22.8031 27.6439 23.1259 27.5105 23.598C27.3718 24.0781 27.5772 24.5902 28.012 24.8383L30.3698 26.1906C30.4685 26.2466 30.5832 26.2706 30.6979 26.2572C30.8179 26.2439 31.0047 26.2466 31.1887 26.3533C31.3967 26.4733 31.5408 26.6787 31.5808 26.9161C31.6208 27.1561 31.5515 27.3935 31.3861 27.5856C31.186 27.8149 30.8553 27.9056 30.5619 27.8149C30.2712 27.7243 30.1298 27.5215 30.0631 27.3668C30.0178 27.2628 29.9377 27.1748 29.8391 27.1161L27.5132 25.7825C27.0624 25.5238 26.4943 25.6038 26.1262 25.9879C25.7795 26.3479 25.7075 26.9027 25.9555 27.3348L26.801 28.8205C26.8704 28.9432 26.9851 29.0312 27.1184 29.0686C27.4572 29.1646 27.7372 29.386 27.9106 29.69C28.108 30.0368 28.14 30.4502 27.9986 30.8236C27.8546 31.2024 27.5585 31.4851 27.1638 31.6185C26.6623 31.7865 26.0969 31.6318 25.7528 31.2317C25.4567 30.8876 25.3527 30.4422 25.4647 30.0101C25.4994 29.8741 25.4807 29.7327 25.4114 29.61L24.5419 28.0843C24.3071 27.6736 23.8244 27.4655 23.3576 27.5776C22.8721 27.6922 22.5334 28.119 22.5334 28.6151V31.3464C22.5334 31.4611 22.5707 31.5731 22.6401 31.6638C22.7121 31.7625 22.8001 31.9252 22.8001 32.1386C22.8001 32.3786 22.6934 32.6054 22.5067 32.7574C22.3173 32.9121 22.0773 32.9708 21.8292 32.9201C21.5305 32.8614 21.2878 32.6187 21.2184 32.32C21.1517 32.0239 21.2584 31.7998 21.3598 31.6638C21.4291 31.5705 21.4665 31.4611 21.4665 31.3464V28.6151C21.4665 28.119 21.1277 27.6922 20.6663 27.5829C20.6556 27.5802 20.6476 27.5776 20.637 27.5749C20.5543 27.5562 20.4716 27.5455 20.3916 27.5455C20.0128 27.5455 19.6527 27.7483 19.4607 28.0843L18.5912 29.61C18.5218 29.7327 18.5031 29.8741 18.5378 30.0101C18.6285 30.3488 18.5805 30.7036 18.4071 31.0103C18.2097 31.3571 17.871 31.5971 17.4762 31.6638C17.0762 31.7332 16.6814 31.6211 16.3667 31.3517C15.9666 31.0077 15.8092 30.4422 15.9799 29.9408C16.1239 29.5087 16.4547 29.1913 16.8841 29.0686C17.0175 29.0312 17.1322 28.9405 17.2015 28.8205L18.047 27.3348C18.2951 26.9001 18.2231 26.3479 17.871 25.9799C17.5083 25.6038 16.9401 25.5238 16.4894 25.7825L14.1635 27.1161C14.0648 27.1721 13.9848 27.2601 13.9394 27.3668C13.8914 27.4789 13.7927 27.6362 13.6087 27.7429C13.4007 27.8629 13.1499 27.8816 12.9259 27.7963C12.6965 27.7083 12.5285 27.5295 12.4458 27.2895C12.3497 27.0014 12.4378 26.668 12.6645 26.4626C12.8885 26.2573 13.1366 26.2386 13.302 26.2572C13.4167 26.2706 13.5313 26.2466 13.63 26.1906L15.9879 24.8383C16.42 24.5902 16.6281 24.0808 16.4867 23.5926C16.356 23.1285 15.9266 22.8058 15.4465 22.8058H13.7021C13.5634 22.8058 13.4273 22.8618 13.3286 22.9578C13.0779 23.2006 12.7472 23.3366 12.3978 23.3366C11.9977 23.3366 11.6216 23.1605 11.3682 22.8511C11.1095 22.5364 11.0108 22.139 11.0908 21.7309C11.1921 21.2134 11.6082 20.7973 12.1257 20.696C12.5711 20.608 13.0112 20.7387 13.3286 21.0507C13.4273 21.1494 13.5634 21.2028 13.7021 21.2028H15.4465C15.9266 21.2028 16.356 20.88 16.4894 20.4079C16.6281 19.9278 16.42 19.4184 15.9879 19.1676L13.63 17.8153C13.5313 17.7593 13.4167 17.7353 13.302 17.7486C13.1793 17.7647 12.9952 17.7593 12.8112 17.6526C12.6031 17.5326 12.4591 17.3272 12.4191 17.0898C12.3791 16.8498 12.4484 16.6124 12.6138 16.4203C12.8139 16.191 13.1446 16.1003 13.438 16.191C13.7287 16.2816 13.8701 16.4844 13.9368 16.6391C13.9821 16.7431 14.0621 16.8311 14.1608 16.8898L16.4867 18.2234C16.9375 18.4821 17.5056 18.4021 17.8737 18.018C18.2204 17.658 18.2924 17.1032 18.0444 16.6711L17.1988 15.1881C17.1295 15.068 17.0148 14.9774 16.8814 14.94C16.5427 14.844 16.2626 14.6226 16.0893 14.3185C15.8919 13.9718 15.8599 13.5584 16.0012 13.1823C16.1453 12.8035 16.4413 12.5208 16.8361 12.3874C17.3375 12.2194 17.903 12.3741 18.2471 12.7742C18.5432 13.1183 18.6472 13.5637 18.5352 13.9958C18.5005 14.1318 18.5191 14.2732 18.5885 14.3959L19.458 15.9216C19.6927 16.3323 20.1755 16.543 20.6423 16.4283C21.1251 16.3137 21.4638 15.8869 21.4638 15.3908V12.6595C21.4638 12.5448 21.4265 12.4328 21.3571 12.3421C21.2878 12.2434 21.1998 12.0807 21.1998 11.8673C21.1998 11.6273 21.3064 11.4005 21.4932 11.2485C21.6825 11.0938 21.9226 11.0351 22.1706 11.0858C22.4694 11.1445 22.7148 11.3872 22.7815 11.6859C22.8481 11.982 22.7414 12.2061 22.6401 12.3421C22.5707 12.4354 22.5334 12.5448 22.5334 12.6595V15.3881C22.5334 15.8842 22.8721 16.3137 23.3629 16.431C23.8217 16.543 24.3071 16.3323 24.5419 15.9216L25.4087 14.3959C25.4781 14.2759 25.4967 14.1318 25.4621 13.9958C25.374 13.657 25.4194 13.3023 25.5928 12.9982C25.7901 12.6515 26.1289 12.4114 26.5236 12.3448C26.9237 12.2754 27.3185 12.3874 27.6332 12.6568C28.0333 13.0009 28.1907 13.569 28.02 14.0678C27.8733 14.4999 27.5452 14.8173 27.1158 14.94C26.9824 14.9774 26.8677 15.068 26.7984 15.1881L25.9528 16.6737C25.7048 17.1085 25.7768 17.6633 26.1289 18.0287C26.4916 18.4048 27.0598 18.4848 27.5105 18.2261L29.8364 16.8925C29.9351 16.8364 30.0151 16.7484 30.0604 16.6417C30.1085 16.5297 30.2071 16.3723 30.3912 16.2656C30.5992 16.1456 30.85 16.1269 31.074 16.2123C31.3034 16.3003 31.4741 16.479 31.5541 16.7191C31.6501 17.0071 31.5621 17.3406 31.3354 17.5459C31.1114 17.7513 30.866 17.77 30.6953 17.7513C30.5806 17.738 30.4659 17.762 30.3672 17.818L28.0093 19.1703C27.5772 19.4184 27.3692 19.9278 27.5105 20.4159C27.6412 20.88 28.0707 21.2028 28.5508 21.2028H30.2952C30.4339 21.2028 30.5699 21.1468 30.6686 21.0507C30.922 20.8053 31.2527 20.6693 31.6021 20.6693C32.0022 20.6693 32.3756 20.8454 32.6317 21.1548C32.8904 21.4668 32.9891 21.8669 32.9091 22.275Z" fill="white"/>
</svg>
