<svg width="44" height="44" viewBox="0 0 44 44" fill="none" xmlns="http://www.w3.org/2000/svg">
<rect width="44" height="44" rx="8" fill="#D8B5FE"/>
<path fill-rule="evenodd" clip-rule="evenodd" d="M21.9996 33.1593C18.9211 33.1593 14.3121 28.9901 12.0092 26.0191C9.94026 23.3514 8.84598 20.6985 8.84598 18.3456C8.84598 15.7804 10.101 13.726 12.0953 12.8128C10.6969 13.9221 9.86809 15.2522 9.62755 16.7859C9.16517 19.7249 10.9686 23.2994 14.7051 26.8492C15.9464 28.0275 17.179 28.8999 18.7108 29.6796C19.3677 30.0128 19.9584 29.5563 20.1815 29.3848L22.3289 27.7178C23.5192 26.7961 23.8383 26.9109 23.8383 26.9121C23.9928 26.9985 24.0028 27.0639 24.0065 27.0861C24.0601 27.3649 23.5653 27.9781 23.2039 28.4248C22.8449 28.8703 22.5047 29.291 22.3427 29.7068C22.2168 30.0313 22.5184 30.3546 22.8549 30.262C26.721 29.1664 28.3089 28.2064 31.4223 25.6845C31.7127 25.45 32.1277 25.8412 31.8959 26.1385C29.574 29.0899 25.0374 33.153 22 33.1594L21.9996 33.1593ZM20.2958 14.7526C18.8364 13.5015 16.8175 12.2812 14.5043 12.2972C12.1238 13.4756 10.7639 15.029 10.4663 16.9156C10.1547 18.9058 11.0333 21.26 12.9726 23.7229C13.45 22.6124 14.3747 21.7462 15.5002 21.3218C14.9481 20.8738 14.5928 20.194 14.5928 19.4352C14.5928 17.9459 15.9339 16.8009 17.4257 17.0205C18.095 15.9396 19.1168 15.1462 20.2958 14.7526ZM21.9996 10.8399C20.985 10.8399 20.1637 11.6555 20.1637 12.6586C20.1637 13.6605 20.985 14.4774 21.9996 14.4774C23.0103 14.4774 23.8354 13.6618 23.8354 12.6586C23.8354 11.6555 23.0103 10.8399 21.9996 10.8399ZM26.9338 21.0365C27.8262 21.0365 28.554 20.3184 28.554 19.435C28.554 18.5515 27.8262 17.8334 26.9338 17.8334C26.0439 17.8334 25.3161 18.5515 25.3161 19.435C25.3161 20.3172 26.0439 21.0365 26.9338 21.0365ZM18.6284 21.3191C20.3072 21.9471 21.5049 23.5536 21.5049 25.4317V27.2924C21.8439 27.0296 22.153 26.7852 22.4945 26.5668V25.4317C22.4945 23.5537 23.6922 21.9473 25.371 21.319C24.0237 20.2172 24.2243 18.1344 25.7436 17.298C23.9564 14.6612 20.0468 14.6551 18.2556 17.298C19.7749 18.1358 19.9756 20.2174 18.6284 21.3191ZM20.6549 27.9498V25.4315C20.6549 23.4709 19.0409 21.8754 17.0617 21.8754C15.4551 21.8754 14.0318 22.96 13.6018 24.4813C14.1115 25.0662 14.6736 25.6547 15.2943 26.2433C16.4708 27.3624 17.6461 28.1928 19.1032 28.9319C19.193 28.9775 19.3226 28.9837 19.6591 28.7221L20.6549 27.9498ZM15.444 19.4349C15.444 20.3171 16.1681 21.0365 17.0618 21.0365C17.9541 21.0365 18.6795 20.3184 18.6795 19.4349C18.6795 18.5515 17.9554 17.8334 17.0618 17.8334C16.1694 17.8334 15.444 18.5515 15.444 19.4349ZM24.8438 26.9283C24.9697 27.5884 24.4101 28.2794 23.868 28.9494C23.8218 29.0074 23.7745 29.0653 23.7284 29.1246C26.5613 28.2325 28.0133 27.3355 30.5234 25.3256C30.466 23.4143 28.8807 21.8769 26.934 21.8769C24.9548 21.8769 23.3445 23.4723 23.3445 25.433V26.1449C23.7097 26.0265 24.0113 26.0413 24.2594 26.1832C24.5884 26.367 24.7828 26.6186 24.8438 26.9283ZM30.2828 12.3515C27.6406 12.0073 25.3275 13.3621 23.7035 14.7526C24.8838 15.145 25.902 15.9396 26.5726 17.0205C28.0632 16.8009 29.4017 17.9459 29.4017 19.4352C29.4017 20.1927 29.0502 20.8714 28.5019 21.3193C29.99 21.8757 31.098 23.2034 31.331 24.8074C31.7735 24.6914 32.267 24.8617 32.5686 25.2393C34.2612 22.8369 35.151 20.469 35.151 18.3457C35.1498 15.139 33.1956 12.7306 30.2828 12.3515ZM35.9997 18.3458C35.9997 14.6984 33.7439 11.9557 30.3913 11.5189C28.3947 11.2585 26.4254 11.8681 24.6645 12.9909C24.6757 12.8823 24.6857 12.7713 24.6857 12.659C24.6857 11.1932 23.4805 10 21.9999 10C20.3809 10 19.1283 11.419 19.3352 12.9909C17.5742 11.8681 15.6051 11.2598 13.6046 11.5189C10.2519 11.9557 8 14.6984 8 18.3458C8 20.8851 9.15161 23.7156 11.3351 26.5312C13.5785 29.4222 18.4479 34.0035 22 34C25.77 33.9951 30.7492 28.9906 32.6649 26.5312C34.8447 23.7156 35.9997 20.8851 35.9997 18.3458Z" fill="white"/>
</svg>
