<svg width="44" height="44" viewBox="0 0 44 44" fill="none" xmlns="http://www.w3.org/2000/svg">
<rect width="44" height="44" rx="8" fill="#F4AF25"/>
<path d="M28.0001 17.16C27.9401 17.15 27.8701 17.15 27.8101 17.16C26.4301 17.11 25.3301 15.98 25.3301 14.58C25.3301 13.15 26.4801 12 27.9101 12C29.3401 12 30.4901 13.16 30.4901 14.58C30.4801 15.98 29.3801 17.11 28.0001 17.16Z" stroke="white" stroke-width="1.5" stroke-linecap="round" stroke-linejoin="round"/>
<path d="M26.9699 24.44C28.3399 24.67 29.8499 24.43 30.9099 23.72C32.3199 22.78 32.3199 21.24 30.9099 20.3C29.8399 19.59 28.3099 19.35 26.9399 19.59" stroke="white" stroke-width="1.5" stroke-linecap="round" stroke-linejoin="round"/>
<path d="M15.97 17.16C16.03 17.15 16.1 17.15 16.16 17.16C17.54 17.11 18.64 15.98 18.64 14.58C18.64 13.15 17.49 12 16.06 12C14.63 12 13.48 13.16 13.48 14.58C13.49 15.98 14.59 17.11 15.97 17.16Z" stroke="white" stroke-width="1.5" stroke-linecap="round" stroke-linejoin="round"/>
<path d="M16.9999 24.44C15.6299 24.67 14.1199 24.43 13.0599 23.72C11.6499 22.78 11.6499 21.24 13.0599 20.3C14.1299 19.59 15.6599 19.35 17.0299 19.59" stroke="white" stroke-width="1.5" stroke-linecap="round" stroke-linejoin="round"/>
<path d="M22.0001 24.63C21.9401 24.62 21.8701 24.62 21.8101 24.63C20.4301 24.58 19.3301 23.45 19.3301 22.05C19.3301 20.62 20.4801 19.47 21.9101 19.47C23.3401 19.47 24.4901 20.63 24.4901 22.05C24.4801 23.45 23.3801 24.59 22.0001 24.63Z" stroke="white" stroke-width="1.5" stroke-linecap="round" stroke-linejoin="round"/>
<path d="M19.0902 27.78C17.6802 28.72 17.6802 30.26 19.0902 31.2C20.6902 32.27 23.3102 32.27 24.9102 31.2C26.3202 30.26 26.3202 28.72 24.9102 27.78C23.3202 26.72 20.6902 26.72 19.0902 27.78Z" stroke="white" stroke-width="1.5" stroke-linecap="round" stroke-linejoin="round"/>
</svg>
