<svg width="44" height="44" viewBox="0 0 44 44" fill="none" xmlns="http://www.w3.org/2000/svg">
<rect width="44" height="44" rx="8" fill="#F4AF25"/>
<path d="M31.5785 19.7617C31.7474 20.4893 31.8336 21.2409 31.8336 21.9995C31.8336 27.422 27.4226 31.8331 22 31.8331C16.5774 31.8331 12.1664 27.422 12.1664 21.9995C12.1664 16.5769 16.5774 12.1659 22 12.1659C23.4493 12.1659 24.8446 12.4727 26.1468 13.0784C26.8491 13.406 27.5145 13.8186 28.1237 14.3059C28.1708 14.3438 28.1995 14.399 28.2041 14.4588C28.2076 14.5197 28.1857 14.5783 28.1432 14.6208L26.9525 15.8334L32.8509 17.3562L31.2223 11.4855L29.9638 12.7647C29.8868 12.844 29.7615 12.8498 29.6764 12.7785C29.1133 12.3073 28.5007 11.8832 27.8536 11.52C26.0768 10.5259 24.0528 10.0006 22 10.0006C15.3834 10.0006 10 15.3829 10 21.9994C10 28.616 15.3834 33.9994 22 33.9994C28.6166 33.9994 34 28.616 34 21.9994C34 21.4455 33.9621 20.8938 33.8874 20.3582L31.5785 19.7617Z" fill="white"/>
<path d="M22 15.9885C18.6853 15.9885 15.9878 18.6848 15.9878 21.9996C15.9878 25.3143 18.6853 28.0118 22 28.0118C25.3148 28.0118 28.0122 25.3143 28.0122 21.9996C28.0122 18.6848 25.3148 15.9885 22 15.9885ZM24.3883 25.675L22 23.9396L19.6117 25.675L20.5243 22.8672L18.136 21.1318H21.0874L21.9999 18.324L22.9125 21.1318H25.8639L23.4756 22.8672L24.3883 25.675Z" fill="white"/>
</svg>
