<svg width="44" height="44" viewBox="0 0 44 44" fill="none" xmlns="http://www.w3.org/2000/svg">
<rect width="44" height="44" rx="8" fill="#F4AF25"/>
<path d="M27.9198 10.1333C25.5065 10.1333 23.3465 11.3066 21.9998 13.1066C20.6532 11.3066 18.4932 10.1333 16.0798 10.1333C11.9865 10.1333 8.6665 13.4666 8.6665 17.5866C8.6665 19.1733 8.91984 20.64 9.35984 22C11.4665 28.6666 17.9598 32.6533 21.1732 33.7466C21.6265 33.9066 22.3732 33.9066 22.8265 33.7466C26.0398 32.6533 32.5332 28.6666 34.6398 22C35.0798 20.64 35.3332 19.1733 35.3332 17.5866C35.3332 13.4666 32.0132 10.1333 27.9198 10.1333Z" fill="white"/>
</svg>
