<svg width="44" height="44" viewBox="0 0 44 44" fill="none" xmlns="http://www.w3.org/2000/svg">
<rect width="44" height="44" rx="8" fill="#F4AF25"/>
<path d="M31.75 10.0002C30.916 9.99921 30.1494 10.4633 29.7607 11.2041C29.6416 11.4161 29.4316 11.5613 29.1924 11.5976C26.5489 12.0587 24.5029 14.179 24.1249 16.8469L24.0907 16.8057C23.1532 15.6979 21.8593 14.9541 20.4335 14.7049C20.1942 14.6686 19.9843 14.5244 19.8651 14.3124C19.2851 13.2086 17.9237 12.7867 16.8251 13.3695C16.0878 13.761 15.6259 14.5303 15.6259 15.3692C15.6298 18.8014 18.3974 21.582 21.8134 21.586C23.0556 21.588 24.0614 22.5986 24.0634 23.8467V26.395C24.0634 26.811 23.7274 27.1485 23.3134 27.1485C22.8993 27.1485 22.5634 26.811 22.5634 26.395C22.5634 24.4345 20.9824 22.845 19.0312 22.845C17.9638 22.845 16.953 23.3297 16.2822 24.1647C15.0566 22.6399 12.8319 22.4015 11.3144 23.6329C10.4824 24.3079 10 25.3225 10 26.3949C10 30.0773 14.5322 33.0739 15.8975 33.8933C16.1338 34.0356 16.4297 34.0356 16.666 33.8933C17.7822 33.2222 21.0138 31.0978 22.1562 28.3328C23.2217 28.9745 24.6035 28.6272 25.2432 27.5557C25.4522 27.2054 25.5626 26.8041 25.5635 26.3959V20.7392C25.5655 19.4911 26.5713 18.4805 27.8135 18.4785C31.2285 18.4746 33.996 15.6929 34 12.2607C33.998 11.0136 32.9922 10.0022 31.75 10.0002ZM24.0625 20.8346C23.414 20.344 22.624 20.0781 21.8125 20.0791C19.2245 20.0761 17.128 17.9695 17.125 15.3693C17.124 14.9533 17.46 14.6158 17.874 14.6148C18.1524 14.6148 18.4092 14.7698 18.5381 15.0171C18.876 15.6411 19.4805 16.0738 20.1777 16.1906C22.4258 16.5782 24.0675 18.5396 24.0625 20.8318L24.0625 20.8346ZM27.8125 16.9706C27.001 16.9696 26.2109 17.2345 25.5625 17.7261V17.7241C25.5566 15.4321 27.1982 13.4696 29.4472 13.0822C30.1435 12.9655 30.749 12.5328 31.0869 11.9087C31.2792 11.5408 31.7333 11.3985 32.0996 11.5928C32.3466 11.7233 32.5009 11.9804 32.5 12.26C32.497 14.861 30.4004 16.9676 27.8125 16.9706Z" fill="white"/>
</svg>
