<svg width="44" height="44" viewBox="0 0 44 44" fill="none" xmlns="http://www.w3.org/2000/svg">
<rect width="44" height="44" rx="8" fill="#39BEF8"/>
<path d="M24.9151 34.2974C24.2938 34.2986 23.6748 34.2216 23.0728 34.0681C21.1556 33.5727 19.7973 32.3668 19.0018 31.4423C17.9991 30.2845 17.4429 29.0866 17.2691 28.4128C17.1508 27.9549 17.1796 27.6628 17.3594 27.493C17.5285 27.3326 17.7544 27.3419 18.0278 27.5218C18.1696 27.614 18.3407 27.7537 18.5579 27.9309C19.4336 28.6428 21.06 29.9697 23.5166 30.3634C24.1851 30.4704 25.1938 30.6308 26.3777 30.3327C28.6398 29.7591 29.9734 27.8513 30.7702 26.7116C30.9501 26.4414 31.1451 26.1816 31.3544 25.9335C31.4547 25.8232 31.7595 25.4863 32.1265 25.6487C32.3311 25.7396 32.4694 25.9609 32.5369 26.3072C32.7375 27.3379 32.3364 30.0726 30.456 32.0206C29.0522 33.4751 26.976 34.2974 24.9151 34.2974ZM17.9182 28.2725C18.2397 29.4209 19.9484 32.5707 23.2379 33.4197C25.6016 34.0306 28.3075 33.2813 29.972 31.556C31.8056 29.6548 32.0396 27.0238 31.8651 26.3593C31.6692 26.5944 31.486 26.8399 31.3163 27.0946C30.466 28.3106 29.0435 30.3454 26.5394 30.9804C25.2226 31.3147 24.0868 31.1322 23.409 31.0232C20.7746 30.6007 19.058 29.201 18.1361 28.4489L17.9182 28.2725Z" fill="white"/>
<path d="M28.2855 22.6689C26.7874 22.6689 25.3556 22.2056 24.4952 21.7103C24.016 21.4349 23.8121 21.1983 23.8341 20.9422C23.8475 20.7838 23.9478 20.5819 24.3462 20.5244C24.5046 20.501 24.7112 20.4937 24.9719 20.4837C26.008 20.4456 27.9365 20.3747 29.4753 19.0685C30.5355 18.1688 31.0188 17.0136 31.2508 16.4615C32.0295 14.5985 31.9306 12.8925 31.8778 11.9761C31.8638 11.7281 31.8524 11.5315 31.8591 11.3818C31.8771 10.9948 32.063 10.8784 32.2147 10.847C32.3136 10.8276 32.4674 10.837 32.6385 10.9894C33.2054 11.4941 34.1653 13.7829 33.9755 16.3592C33.8986 17.41 33.6954 20.1996 31.5208 21.7277C30.5449 22.4162 29.3971 22.6689 28.2855 22.6689ZM24.8703 21.1568C25.5467 21.5077 26.2731 21.7521 27.0241 21.8814C28.1544 22.082 29.7868 22.1281 31.1385 21.1789C33.0536 19.8332 33.2408 17.273 33.311 16.3091C33.4447 14.4695 32.9447 12.8792 32.5523 12.0583C32.6084 13.0543 32.6713 14.793 31.8671 16.7148C31.6151 17.3165 31.0903 18.5732 29.9078 19.5772C28.1925 21.0331 26.1136 21.1093 24.9966 21.1508L24.8703 21.1568Z" fill="white"/>
<path d="M11.7236 27.1168C11.5678 27.1102 11.4171 27.0594 11.2891 26.9704C10.759 26.6362 10.134 25.7291 10.019 24.713C9.82579 23.0004 11.14 21.4208 12.4749 20.8051C14.0712 20.0698 15.8982 20.5544 16.5205 20.9789C16.5927 21.0277 16.8106 21.1795 16.7966 21.4214C16.7759 21.7764 16.4196 21.8045 16.0753 21.8326C15.5465 21.8747 14.6615 21.9449 13.8152 22.5572C13.3465 22.9008 12.9624 23.3468 12.6922 23.8614C12.2563 24.7016 12.265 25.4844 12.2717 26.0553C12.2771 26.5392 12.2817 26.9577 11.8947 27.0887C11.8397 27.1078 11.7818 27.1173 11.7236 27.1168ZM14.2878 21.0926C13.7597 21.0872 13.2367 21.1967 12.755 21.4134C11.251 22.1073 10.5651 23.5933 10.6828 24.6395C10.7764 25.473 11.3091 26.1636 11.6012 26.3808C11.6012 26.2866 11.6012 26.1682 11.6012 26.0646C11.5946 25.459 11.5839 24.5432 12.0972 23.5552C12.4188 22.9301 12.8872 22.3924 13.4622 21.9882C14.0373 21.5839 14.7018 21.3252 15.3988 21.2343C15.0357 21.1415 14.6626 21.0939 14.2878 21.0926Z" fill="white"/>
<path d="M19.8447 16.6813C18.7839 16.6813 17.8734 16.3531 17.1896 15.7187C15.5833 14.2301 15.9128 11.7541 16.3139 10.6511C16.4797 10.1945 16.6314 10.012 16.856 10.0007C16.9523 9.99465 17.1836 10.0227 17.2658 10.3783C17.2872 10.4706 17.3039 10.5882 17.3246 10.738C17.4242 11.4486 17.6094 12.7715 18.6335 13.5649C19.1475 13.966 19.6903 14.0783 19.9517 14.1338C21.4818 14.4593 22.8789 13.7648 23.7132 13.3497C23.8982 13.2522 24.0883 13.1647 24.2827 13.0876C24.5775 12.9807 24.7961 13.0208 24.9304 13.1973C25.0234 13.3209 25.0441 13.48 24.9926 13.6719C24.8235 14.2982 23.7626 15.5496 22.2866 16.1733C21.6699 16.4267 21.0196 16.589 20.3561 16.6553C20.1816 16.6733 20.0112 16.6813 19.8447 16.6813ZM16.7698 11.496C16.5545 12.5228 16.5024 14.1732 17.6441 15.2288C19.2157 16.686 21.7425 15.6793 22.0253 15.563C23.0654 15.1231 23.8088 14.3718 24.147 13.8858L24.01 13.9526C23.0968 14.4065 21.5694 15.1659 19.8113 14.7929C19.2349 14.6884 18.6909 14.4503 18.223 14.0977C17.2832 13.3671 16.9309 12.2969 16.7698 11.496Z" fill="white"/>
</svg>
